<?xml version="1.0" encoding="UTF-8"?>
<svg width="281px" height="281px" viewBox="0 0 281 281" version="1.1" xmlns="http://www.w3.org/2000/svg" xmlns:xlink="http://www.w3.org/1999/xlink">
    <!-- Generator: Sketch 41.2 (35397) - http://www.bohemiancoding.com/sketch -->
    <title>backpack</title>
    <desc>Created with Sketch.</desc>
    <defs></defs>
    <g id="Screens" stroke="none" stroke-width="1" fill="none" fill-rule="evenodd">
        <g id="gf-03" transform="translate(-902.000000, -205.000000)">
            <g id="backpack" transform="translate(902.000000, 205.000000)">
                <g id="Layer_1">
                    <g id="Group">
                        <path d="M17.502,148.766 L262.526,148.766 C272.187,148.766 280.028,156.607 280.028,166.268 L280.028,245.026 C280.028,254.696 272.187,262.528 262.526,262.528 L17.502,262.528 C7.841,262.526 0,254.695 0,245.025 L0,166.267 C0,156.605 7.841,148.766 17.502,148.766 Z" id="Shape" fill="#BF392C"></path>
                        <path d="M140.014,17.503 C154.505,17.503 166.267,25.344 166.267,35.005 L183.769,35.005 C183.768,15.674 164.184,0.001 140.014,0.001 C115.844,0.001 96.259,15.674 96.259,35.004 L113.761,35.004 C113.761,25.343 125.522,17.503 140.014,17.503 Z" id="Shape" fill="#324D5B"></path>
                        <path d="M78.758,35.004 L201.27,35.004 C230.262,35.004 253.775,58.518 253.775,87.509 L253.775,262.526 C253.775,272.196 245.934,280.028 236.273,280.028 L43.754,280.028 C34.093,280.028 26.252,272.196 26.252,262.526 L26.252,87.51 C26.253,58.518 49.757,35.004 78.758,35.004 Z" id="Shape" fill="#E2574C"></path>
                        <path d="M52.505,35.004 L227.522,35.004 C246.853,35.004 262.525,50.677 262.525,70.007 L262.525,105.01 C262.525,124.341 246.852,140.013 227.522,140.013 L52.505,140.013 C33.174,140.013 17.502,124.34 17.502,105.01 L17.502,70.008 C17.502,50.677 33.174,35.004 52.505,35.004 Z" id="Shape" fill="#BF392C"></path>
                        <path d="M70.007,218.771 C70.007,218.771 76.754,236.273 83.405,236.273 C89.881,236.273 96.26,218.771 96.26,218.771 L96.26,35.004 L70.007,35.004 L70.007,218.771 Z M183.768,35.004 L183.768,218.772 C183.768,218.772 190.515,236.274 197.166,236.274 C203.642,236.274 210.021,218.772 210.021,218.772 L210.021,35.004 L183.768,35.004 Z" id="Shape" fill="#EFC75E"></path>
                        <path d="M61.256,201.271 L105.01,201.271 L105.01,175.018 L61.256,175.018 L61.256,201.271 Z M175.017,175.018 L175.017,201.271 L218.771,201.271 L218.771,175.018 L175.017,175.018 L175.017,175.018 Z" id="Shape" fill="#E4E7E7"></path>
                    </g>
                </g>
            </g>
        </g>
    </g>
</svg>