<?xml version="1.0" encoding="UTF-8"?>
<svg width="60px" height="60px" viewBox="0 0 60 60" version="1.1" xmlns="http://www.w3.org/2000/svg" xmlns:xlink="http://www.w3.org/1999/xlink">
    <defs></defs>
    <g id="Page-1" stroke="none" stroke-width="1" fill="none" fill-rule="evenodd">
        <g id="globe" fill="#000000">
            <path d="M47.007,5.305 L47.056,5.273 L45.733,4.457 C45.655,4.409 45.573,4.369 45.495,4.321 C45.061,4.059 44.62,3.808 44.172,3.567 C43.945,3.445 43.715,3.33 43.485,3.214 C43.148,3.043 42.807,2.88 42.463,2.722 C42.26,2.629 42.058,2.534 41.854,2.446 C41.319,2.215 40.778,1.998 40.228,1.798 C40.115,1.757 40,1.722 39.886,1.682 C39.405,1.514 38.918,1.358 38.427,1.214 C38.27,1.168 38.113,1.123 37.955,1.08 C37.411,0.93 36.861,0.793 36.305,0.674 C36.252,0.663 36.201,0.649 36.148,0.638 C35.533,0.509 34.911,0.403 34.283,0.313 C34.145,0.293 34.005,0.278 33.867,0.26 C33.376,0.197 32.882,0.145 32.384,0.106 C32.216,0.093 32.049,0.078 31.881,0.068 C31.258,0.026 30.632,0 30,0 C29.317,0 28.642,0.031 27.97,0.076 C27.794,0.088 27.619,0.101 27.443,0.116 C26.812,0.169 26.185,0.237 25.565,0.33 C25.503,0.339 25.441,0.347 25.379,0.356 C24.755,0.453 24.139,0.575 23.529,0.71 C23.327,0.754 23.126,0.801 22.925,0.85 C22.363,0.986 21.807,1.135 21.258,1.302 C21.084,1.355 20.912,1.413 20.74,1.469 C20.248,1.629 19.761,1.802 19.281,1.987 C19.061,2.071 18.841,2.157 18.623,2.247 C18.071,2.474 17.525,2.712 16.99,2.971 C16.814,3.056 16.641,3.151 16.466,3.24 C16.048,3.452 15.636,3.673 15.23,3.904 C15.027,4.019 14.825,4.133 14.624,4.253 C14.116,4.558 13.617,4.876 13.129,5.209 C13.062,5.255 12.991,5.293 12.925,5.34 L12.38,5.718 L12.385,5.74 C4.887,11.197 0,20.036 0,30 C0,46.542 13.458,60 30,60 C46.542,60 60,46.542 60,30 C60,19.769 54.848,10.722 47.007,5.305 Z M15.089,6.318 C15.412,6.114 15.739,5.917 16.069,5.727 C16.252,5.621 16.433,5.512 16.619,5.41 C17.083,5.156 17.554,4.919 18.03,4.693 C18.236,4.595 18.444,4.504 18.653,4.411 C19.002,4.256 19.353,4.109 19.707,3.968 C19.902,3.89 20.096,3.809 20.294,3.736 C20.8,3.548 21.312,3.376 21.828,3.219 C22.017,3.161 22.21,3.11 22.401,3.056 C22.802,2.943 23.205,2.838 23.612,2.743 C23.794,2.7 23.976,2.655 24.159,2.616 C24.718,2.497 25.281,2.393 25.848,2.308 C25.977,2.289 26.108,2.276 26.237,2.258 C26.715,2.194 27.196,2.142 27.679,2.102 C27.847,2.088 28.016,2.074 28.185,2.063 C28.788,2.027 29.392,2 30,2 C30.529,2 31.057,2.018 31.583,2.048 C31.734,2.056 31.883,2.071 32.033,2.082 C32.412,2.11 32.791,2.142 33.168,2.185 C33.335,2.204 33.501,2.227 33.667,2.249 C34.032,2.297 34.395,2.351 34.757,2.414 C34.918,2.442 35.078,2.47 35.238,2.5 C35.615,2.572 35.99,2.653 36.363,2.74 C36.501,2.772 36.64,2.802 36.777,2.836 C37.237,2.951 37.694,3.077 38.147,3.215 C38.193,3.229 38.24,3.24 38.286,3.254 C38.77,3.404 39.248,3.57 39.723,3.745 C39.913,3.816 40.099,3.893 40.287,3.968 C40.563,4.077 40.837,4.188 41.11,4.306 C41.346,4.409 41.58,4.515 41.813,4.624 C42.023,4.722 42.231,4.823 42.439,4.926 C42.591,5 42.743,5.079 42.894,5.158 C39.072,6.69 36.698,8.567 34.041,12.024 C33.664,12.513 33.473,13.112 33.49,13.71 C33.261,13.158 32.925,12.738 32.477,12.444 C31.551,11.836 30.339,11.879 28.774,12.577 L28.489,12.609 C26.483,12.833 25.378,12.957 25.278,15.139 C25.227,16.243 25.819,17.333 26.786,17.915 C27.031,18.062 27.288,18.169 27.55,18.234 C27.578,18.329 27.622,18.426 27.687,18.524 L28.09,19.081 L28.733,18.974 C29.283,18.881 29.745,18.861 30.058,18.87 C30.011,19.314 30.089,19.768 30.289,20.173 C30.567,20.735 31.045,21.145 31.635,21.327 C32.199,21.501 32.248,21.67 32.316,21.903 C32.637,23.008 33.367,23.825 34.319,24.142 C35.229,24.447 36.24,24.25 37.097,23.607 C37.611,23.218 37.902,23.299 39.025,23.842 C39.758,24.196 40.671,24.638 41.853,24.79 C42.039,24.813 42.15,24.869 42.191,24.912 C43.004,25.766 43.628,26.828 44.231,27.855 C45.155,29.428 46.028,30.915 47.53,31.694 C48.705,32.305 47.389,35.754 46.758,37.411 C46.631,37.745 46.512,38.056 46.413,38.334 C44.889,39.508 43.958,40.841 43.057,42.131 C42.25,43.286 41.416,44.481 40.123,45.593 C38.17,47.274 36.518,48.281 34.6,48.963 C34.285,49.074 34.08,48.887 34.006,48.8 C33.936,48.718 33.79,48.495 33.946,48.216 C35.919,44.684 38.201,39.703 35.247,37.258 C32.351,34.862 31.267,31.383 32.483,28.397 C33,27.129 32.423,25.707 31.146,25.039 C31.037,24.906 30.959,24.325 30.908,23.94 C30.795,23.095 30.655,22.044 30.03,21.127 C29.77,20.747 29.304,20.404 28.983,20.248 C27.762,19.65 26.59,19.479 25.457,19.315 C24.555,19.183 23.702,19.059 22.832,18.726 C19.519,17.455 17.161,12.08 15.439,8.154 C15.193,7.592 14.956,7.053 14.728,6.548 C14.847,6.472 14.968,6.395 15.089,6.318 Z M30,58 C14.561,58 2,45.439 2,30 C2,20.923 6.345,12.844 13.061,7.725 C13.238,8.122 13.419,8.532 13.607,8.96 C15.574,13.445 18.022,19.026 22.115,20.596 C23.192,21.009 24.197,21.156 25.168,21.296 C26.194,21.445 27.163,21.586 28.105,22.048 C28.181,22.085 28.338,22.207 28.378,22.257 C28.735,22.781 28.832,23.505 28.925,24.205 C29.054,25.171 29.2,26.266 30.178,26.783 C30.496,26.952 30.774,27.292 30.631,27.643 C29.078,31.455 30.389,35.834 33.972,38.8 C34.89,39.56 35.328,41.642 32.2,47.242 C31.685,48.164 31.795,49.283 32.479,50.093 C32.976,50.68 33.681,50.998 34.412,50.998 C34.698,50.998 34.988,50.949 35.271,50.849 C37.436,50.079 39.277,48.961 41.428,47.11 C42.913,45.834 43.82,44.535 44.698,43.278 C45.584,42.009 46.422,40.81 47.795,39.799 C47.995,39.653 48.143,39.454 48.222,39.224 C48.33,38.908 48.472,38.536 48.628,38.126 C49.656,35.43 51.21,31.355 48.454,29.922 C47.463,29.407 46.766,28.22 45.957,26.845 C45.327,25.772 44.612,24.556 43.641,23.534 C43.265,23.139 42.735,22.888 42.111,22.807 C41.251,22.697 40.564,22.364 39.898,22.042 C38.801,21.511 37.434,20.851 35.897,22.008 C35.665,22.183 35.314,22.364 34.954,22.246 C34.634,22.139 34.373,21.811 34.239,21.347 C34.045,20.676 33.64,19.852 32.227,19.416 C32.165,19.396 32.117,19.353 32.084,19.285 C32.04,19.196 32.035,19.086 32.081,18.96 C32.27,18.445 32.192,17.925 31.867,17.532 C31.51,17.1 30.873,16.878 29.966,16.864 C29.931,16.707 29.851,16.548 29.703,16.393 L29.096,15.838 L28.414,16.24 C28.237,16.345 28.037,16.332 27.82,16.2 C27.484,15.999 27.261,15.599 27.278,15.229 C27.288,15 27.303,14.87 27.316,14.795 C27.561,14.723 28.146,14.657 28.714,14.594 L29.321,14.525 L29.468,14.457 C30.361,14.042 31.076,13.916 31.38,14.113 C31.503,14.194 31.899,14.582 31.854,16.189 L31.829,17.077 L32.707,17.207 C33.848,17.378 34.694,17.155 35.221,16.55 C35.766,15.924 35.865,14.995 35.512,13.789 C35.461,13.614 35.506,13.399 35.627,13.242 C38.394,9.642 40.716,7.985 45.135,6.459 C52.866,11.45 58,20.134 58,30 C58,45.439 45.439,58 30,58 Z" id="Shape"></path>
        </g>
    </g>
</svg>