<?xml version="1.0" encoding="UTF-8"?>
<svg width="375px" height="404px" viewBox="0 0 375 404" version="1.1" xmlns="http://www.w3.org/2000/svg" xmlns:xlink="http://www.w3.org/1999/xlink">
    <!-- Generator: Sketch 41.2 (35397) - http://www.bohemiancoding.com/sketch -->
    <title>translation</title>
    <desc>Created with Sketch.</desc>
    <defs></defs>
    <g id="Screens" stroke="none" stroke-width="1" fill="none" fill-rule="evenodd">
        <g id="sk-1" transform="translate(-809.000000, -165.000000)">
            <g id="translation" transform="translate(809.000000, 165.000000)">
                <g id="Layer_1">
                    <path d="M349.615809,401.646877 L262.853729,357.516374 C140.312237,411.790191 0.675945378,321.89271 0.675945378,186.685801 C0.675945378,83.7469162 84.4529937,0 187.429884,0 C340.061187,0 426.489233,172.614316 339.949317,294.452211 L369.373424,384.756055 C373.240809,396.624834 360.779149,407.321778 349.615809,401.646877 Z" id="Shape" fill="#FFE49C"></path>
                    <path d="M339.950105,294.452211 C426.489233,172.614316 340.061187,0 187.429884,0 L187.429884,373.571634 C212.401261,373.60786 237.979254,368.532265 262.852941,357.515587 L349.615021,401.646877 C360.778361,407.323353 373.240809,396.624834 369.373424,384.756842 L339.950105,294.452211 Z" id="Shape" fill="#FFD155"></path>
                    <path d="M187.429884,56.5962261 C115.671744,56.5962261 57.2922794,114.954144 57.2922794,186.685801 C57.2922794,258.417458 115.671744,316.775376 187.429884,316.775376 C259.188025,316.775376 317.568277,258.418246 317.568277,186.686589 C317.568277,114.954932 259.188025,56.5962261 187.429884,56.5962261 Z M288.454569,172.621404 L264.46875,172.621404 C262.922269,147.60648 257.261817,124.129591 248.086922,104.765154 C269.586397,120.71331 284.611607,144.904483 288.454569,172.621404 Z M173.361082,89.5478207 L173.361082,172.621404 L138.568803,172.621404 C141.435662,131.548858 156.604254,100.911797 173.361082,89.5478207 Z M173.361082,200.749411 L173.361082,284.238807 C154.503151,272.058168 141.429359,236.460491 138.640494,200.749411 L173.361082,200.749411 L173.361082,200.749411 Z M201.499475,283.823782 L201.499475,200.749411 L236.291754,200.749411 C233.426471,241.822745 218.256303,272.459805 201.499475,283.823782 Z M201.499475,172.621404 L201.499475,89.1327953 C220.357405,101.313435 233.431197,136.910324 236.220063,172.621404 L201.499475,172.621404 Z M126.772847,104.765942 C117.598739,124.129591 111.939076,147.60648 110.391019,172.622191 L86.4059874,172.622191 C90.2497374,144.904483 105.274947,120.71331 126.772847,104.765942 Z M86.4067752,200.749411 L110.392595,200.749411 C111.939076,225.764335 117.599527,249.241224 126.774422,268.605661 C105.274947,252.658292 90.2497374,228.466331 86.4067752,200.749411 Z M248.08771,268.606448 C257.261817,249.242799 262.921481,225.76591 264.469538,200.750199 L288.455357,200.750199 C284.611607,228.466331 269.586397,252.658292 248.08771,268.606448 Z" id="Shape" fill="#8DC3E9"></path>
                    <path d="M187.429884,56.5962261 L187.429884,316.775376 C259.188025,316.775376 317.567489,258.417458 317.567489,186.685801 C317.568277,114.954932 259.188025,56.5962261 187.429884,56.5962261 Z M288.454569,172.622191 L264.46875,172.622191 C262.922269,147.607267 257.261817,124.130378 248.086922,104.765942 C269.586397,120.71331 284.611607,144.905271 288.454569,172.622191 Z M201.499475,89.1327953 C220.357405,101.313435 233.431197,136.911111 236.220063,172.621404 L201.499475,172.621404 L201.499475,89.1327953 Z M201.499475,283.823782 L201.499475,200.749411 L236.291754,200.749411 C233.424895,241.822745 218.256303,272.459805 201.499475,283.823782 Z M248.08771,268.606448 C257.261817,249.242799 262.921481,225.76591 264.469538,200.750199 L288.455357,200.750199 C284.611607,228.467906 269.586397,252.658292 248.08771,268.606448 Z" id="Shape" fill="#48AEE2"></path>
                </g>
            </g>
        </g>
    </g>
</svg>